<svg width="161" height="20" viewBox="0 0 161 20" fill="none" xmlns="http://www.w3.org/2000/svg">
<g id="type">
<path id="ArtWizard" d="M17.5643 11.2396L15.0243 6.03762L12.5452 11.2396H17.5643ZM20.592 17.4575L19.4134 15.0191H10.7773L9.6191 17.4575H3.76691L11.2447 2.33936H19.007L26.9115 17.4575H20.592ZM32.8942 6.5253V8.53699C33.0974 8.23896 33.348 7.94771 33.6461 7.66323C33.9576 7.3652 34.4656 7.0604 35.1701 6.74882C35.8745 6.43725 36.6399 6.28146 37.4662 6.28146H37.7101C38.5771 6.28146 39.3221 6.4237 39.9453 6.70818C40.5684 6.97912 41.0426 7.35843 41.3677 7.84611C41.6928 8.32024 41.9299 8.82825 42.0789 9.37012C42.2279 9.89844 42.3024 10.481 42.3024 11.1176V12.2149H36.9379V11.8289C36.9379 11.1651 36.7754 10.63 36.4502 10.2236C36.1387 9.80361 35.6442 9.59364 34.9669 9.59364C34.3302 9.59364 33.8289 9.81039 33.4632 10.2439C33.111 10.6774 32.9349 11.2463 32.9349 11.9508V17.4575H27.4078V6.5253H32.8942ZM52.5852 17.4575H47.9116C45.9744 17.4575 45.0058 16.4212 45.0058 14.3485V9.87812H42.9128V6.5253H45.0058V3.33504H50.4922V6.5253H52.5852V9.87812H50.4922V13.109C50.4922 13.4612 50.5464 13.7119 50.6548 13.8609C50.7767 13.9963 51.0273 14.0641 51.4066 14.0641H52.5852V17.4575ZM65.7663 17.4575H58.7355L52.8427 2.33936H59.2639L62.698 12.3165L65.7256 2.33936H72.2281L75.2964 12.154L78.6289 2.33936H84.5421L78.6492 17.4575H71.9639L68.8143 7.90707L65.7663 17.4575ZM90.6408 2.33936V5.6109H85.1137V2.33936H90.6408ZM90.6408 6.5253V17.4575H85.1137V6.5253H90.6408ZM106.278 17.4575H91.8918V14.4908L99.1664 9.7562H91.8918V6.5253H106.258V9.43108L98.76 14.1047H106.278V17.4575ZM117.291 12.7636V12.2962L113.634 12.9465C113.146 13.0277 112.801 13.1361 112.598 13.2716C112.394 13.407 112.293 13.6103 112.293 13.8812V13.9015C112.293 14.2131 112.421 14.4772 112.679 14.694C112.95 14.9107 113.397 15.0191 114.02 15.0191C114.995 15.0191 115.781 14.7956 116.377 14.3485C116.987 13.888 117.291 13.3596 117.291 12.7636ZM117.393 15.9945C116.282 17.1053 114.575 17.6607 112.272 17.6607H112.049C110.342 17.6607 109.069 17.3221 108.229 16.6447C107.402 15.9674 106.989 15.1343 106.989 14.1453V13.9015C106.989 12.9532 107.328 12.2217 108.005 11.7069C108.696 11.1786 109.834 10.8535 111.419 10.7316L116.682 10.2642C117.088 10.21 117.291 10.0339 117.291 9.73588C117.291 9.57332 117.244 9.43785 117.149 9.32948C117.068 9.2211 116.844 9.12628 116.479 9.045C116.113 8.95017 115.591 8.90275 114.914 8.90275H114.833C114.291 8.90275 113.837 8.94339 113.471 9.02468C113.119 9.09241 112.868 9.20078 112.719 9.3498C112.584 9.49881 112.496 9.61396 112.455 9.69524C112.428 9.76297 112.401 9.87135 112.374 10.0204H107.253V9.89844C107.253 9.53268 107.28 9.21433 107.335 8.9434C107.402 8.67246 107.572 8.35411 107.843 7.98835C108.114 7.62259 108.479 7.32456 108.94 7.09426C109.414 6.86397 110.105 6.66754 111.013 6.50498C111.934 6.32887 113.017 6.24082 114.264 6.24082H115.402C116.702 6.24082 117.827 6.3221 118.775 6.48466C119.723 6.63367 120.441 6.82333 120.929 7.05362C121.416 7.27037 121.803 7.55485 122.087 7.90707C122.371 8.24574 122.541 8.55054 122.595 8.82147C122.663 9.07886 122.697 9.39044 122.697 9.7562V13.7999C122.697 14.1115 122.852 14.2673 123.164 14.2673H123.753V17.4575H119.161C118.145 17.4575 117.556 16.9698 117.393 15.9945ZM130.189 6.5253V8.53699C130.392 8.23896 130.643 7.94771 130.941 7.66323C131.252 7.3652 131.76 7.0604 132.465 6.74882C133.169 6.43725 133.934 6.28146 134.761 6.28146H135.005C135.872 6.28146 136.617 6.4237 137.24 6.70818C137.863 6.97912 138.337 7.35843 138.662 7.84611C138.987 8.32024 139.224 8.82825 139.373 9.37012C139.522 9.89844 139.597 10.481 139.597 11.1176V12.2149H134.232V11.8289C134.232 11.1651 134.07 10.63 133.745 10.2236C133.433 9.80361 132.939 9.59364 132.261 9.59364C131.625 9.59364 131.123 9.81039 130.758 10.2439C130.405 10.6774 130.229 11.2463 130.229 11.9508V17.4575H124.702V6.5253H130.189ZM152.542 11.9914V11.8898C152.542 11.226 152.237 10.6435 151.627 10.1423C151.031 9.62751 150.191 9.37012 149.108 9.37012H149.006C147.909 9.37012 147.123 9.61396 146.649 10.1016C146.175 10.5758 145.938 11.1718 145.938 11.8898V11.9914C145.938 12.6823 146.188 13.2851 146.689 13.7999C147.204 14.3147 147.983 14.5721 149.026 14.5721H149.108C150.205 14.5721 151.051 14.3147 151.648 13.7999C152.244 13.2716 152.542 12.6688 152.542 11.9914ZM152.542 2.33936H158.069V17.4575H152.562V15.8726C152.426 16.0216 152.25 16.1774 152.034 16.3399C151.83 16.4889 151.519 16.6786 151.099 16.9089C150.692 17.1256 150.157 17.3085 149.494 17.4575C148.83 17.593 148.098 17.6607 147.299 17.6607H146.954C144.718 17.6607 143.052 17.1392 141.955 16.0961C140.871 15.053 140.329 13.7322 140.329 12.1337V11.7069C140.329 10.9754 140.444 10.3048 140.675 9.69524C140.919 9.07209 141.284 8.50313 141.772 7.98835C142.26 7.47357 142.93 7.06717 143.784 6.76914C144.637 6.47111 145.64 6.3221 146.791 6.3221H147.177C149.358 6.3221 151.146 6.85042 152.542 7.90707V2.33936Z" fill="white"/>
<path id="ArtWizard (Stroke)" fill-rule="evenodd" clip-rule="evenodd" d="M26.9115 17.4575H20.592L19.4134 15.0191H10.7774L9.61911 17.4575H3.76691L11.2447 2.33931H19.007L26.9115 17.4575ZM12.256 17.3584L11.0977 19.7968H0L9.79196 0H20.4237L25.0685 8.88364V4.18594H35.2335V4.24504C35.9544 4.04061 36.7017 3.9421 37.4662 3.9421H37.7101C38.6995 3.9421 39.6707 4.08552 40.5735 4.43543V4.18594H42.6665V0.995685H49.8082L49.4201 0H60.9327L62.558 4.72196L63.9909 0H73.9477L75.3882 4.6077L76.9528 0H92.9801V4.18594H108.597V4.70759C109.204 4.49149 109.883 4.33128 110.587 4.20465C111.688 3.99536 112.92 3.90146 114.264 3.90146H115.402C116.785 3.90146 118.043 3.98693 119.154 4.17616C120.163 4.33551 121.123 4.56329 121.903 4.92661C122.059 4.99678 122.213 5.07333 122.363 5.1566V4.18594H132.528V4.24504C133.249 4.04061 133.996 3.9421 134.761 3.9421H135.005C136.113 3.9421 137.199 4.12223 138.192 4.57128C139.004 4.92729 139.735 5.44226 140.309 6.144C141.074 5.42068 142.007 4.91181 143.012 4.56057C144.171 4.15596 145.445 3.98274 146.791 3.98274H147.177C148.231 3.98274 149.243 4.0885 150.202 4.31265V0H160.408V19.7968H150.223V19.6895C150.151 19.7069 150.078 19.7237 150.006 19.74L149.984 19.745L149.961 19.7496C149.119 19.9214 148.228 20 147.299 20H146.954C144.401 20 142.044 19.4082 140.343 17.7915L140.333 17.7815C139.368 16.8532 138.706 15.7633 138.337 14.5542H132.569V19.7968H119.161C118.41 19.7968 117.574 19.6398 116.824 19.1563C115.468 19.755 113.911 20 112.272 20H112.049C110.856 20 109.68 19.8593 108.618 19.4843V19.7968H82.7744V13.3156L80.2482 19.7968H70.2722L68.8508 15.4868L67.4753 19.7968H62.8726L62.838 19.911L62.7986 19.7968H57.1366L54.9245 14.1216V19.7968H47.9116C46.5404 19.7968 45.0933 19.4225 44.0232 18.2776C43.0333 17.2185 42.7 15.853 42.6689 14.5542H35.2742V19.7968H19.1244L17.9458 17.3584H12.256ZM32.9349 17.4575V11.9507C32.9349 11.2463 33.111 10.6773 33.4632 10.2438C33.7356 9.92093 34.0833 9.71829 34.506 9.63591C34.6508 9.6077 34.8044 9.5936 34.9669 9.5936C34.9884 9.5936 35.0097 9.59381 35.0309 9.59423C35.6755 9.60716 36.1486 9.81692 36.4502 10.2235C36.7754 10.6299 36.9379 11.165 36.9379 11.8288V12.2149H42.3024V11.1176C42.3024 10.6787 42.267 10.2655 42.1962 9.87808C42.1961 9.87724 42.1959 9.87641 42.1958 9.87558C42.1639 9.7019 42.125 9.5334 42.0789 9.37008C41.9299 8.82821 41.6928 8.3202 41.3677 7.84607C41.1624 7.5381 40.8977 7.27336 40.5735 7.05183C40.3843 6.92255 40.1749 6.80798 39.9453 6.70814C39.3221 6.42366 38.5771 6.28142 37.7101 6.28142H37.4662C36.6646 6.28142 35.9204 6.42801 35.2335 6.7212C35.2123 6.73025 35.1912 6.73945 35.1701 6.74878C34.7175 6.94897 34.3459 7.14637 34.0555 7.34097C33.8939 7.44924 33.7574 7.55665 33.6461 7.66319C33.348 7.94767 33.0974 8.23892 32.8942 8.53695V6.52526H27.4078V17.4575H32.9349ZM42.9128 6.52526V9.87808H45.0058V14.3485C45.0058 16.4212 45.9744 17.4575 47.9116 17.4575H52.5852V14.064H51.4066C51.0273 14.064 50.7767 13.9963 50.6548 13.8608C50.5464 13.7118 50.4922 13.4612 50.4922 13.109V9.87808H52.5852V6.52526H50.4922V3.335H45.0058V6.52526H42.9128ZM58.7355 17.4575H65.7663L68.8143 7.90703L71.9639 17.4575H78.6493L84.5421 2.33931H78.6289L75.2964 12.1539L72.2281 2.33931H65.7257L62.698 12.3165L59.2639 2.33931H52.8427L58.7355 17.4575ZM85.1138 17.4575H90.6408V6.52526H85.1138V17.4575ZM90.6408 5.61085V2.33931H85.1138V5.61085H90.6408ZM91.8918 9.75616H99.1664L91.8918 14.4907V17.4575H106.278V14.1047H98.76L106.258 9.43104V6.52526H91.8918V9.75616ZM107.397 12.3596C107.125 12.7865 106.989 13.3005 106.989 13.9015V14.1453C106.989 15.1342 107.402 15.9673 108.229 16.6447C108.349 16.742 108.479 16.8324 108.618 16.9158C109.444 17.4124 110.587 17.6607 112.049 17.6607H112.272C113.384 17.6607 114.357 17.5312 115.191 17.2723C115.231 17.26 115.27 17.2473 115.309 17.2344C116.15 16.9567 116.844 16.5434 117.393 15.9944C117.418 16.1469 117.454 16.2874 117.501 16.4161C117.717 17.0189 118.163 17.36 118.838 17.4394C118.94 17.4515 119.048 17.4575 119.161 17.4575H123.753V14.2672H123.164C122.852 14.2672 122.697 14.1114 122.697 13.7999V9.75616C122.697 9.3904 122.663 9.07882 122.595 8.82143C122.562 8.65415 122.484 8.47396 122.363 8.28086C122.288 8.1612 122.196 8.03659 122.087 7.90703C121.803 7.55481 121.416 7.27033 120.929 7.05358C120.441 6.82329 119.723 6.63363 118.775 6.48462C117.827 6.32206 116.702 6.24078 115.402 6.24078H114.264C113.017 6.24078 111.934 6.32883 111.013 6.50494C110.105 6.6675 109.414 6.86393 108.94 7.09422C108.819 7.15455 108.705 7.21954 108.597 7.28917C108.416 7.40656 108.253 7.53718 108.108 7.68101C108.011 7.77749 107.923 7.87993 107.843 7.98831C107.572 8.35407 107.402 8.67242 107.335 8.94335C107.306 9.08403 107.286 9.23748 107.272 9.40371C107.271 9.41278 107.271 9.42189 107.27 9.43104C107.259 9.57712 107.253 9.7329 107.253 9.8984V10.0203H112.374C112.401 9.8713 112.428 9.76293 112.455 9.6952C112.496 9.61392 112.584 9.49877 112.719 9.34976C112.868 9.20074 113.119 9.09237 113.471 9.02463C113.837 8.94335 114.291 8.90271 114.833 8.90271H114.914C114.997 8.90271 115.077 8.90341 115.155 8.90482C115.716 8.91497 116.157 8.96168 116.479 9.04495C116.493 9.0481 116.507 9.05128 116.521 9.05447C116.539 9.05882 116.558 9.06321 116.576 9.06763C116.884 9.14372 117.075 9.23099 117.149 9.32944C117.244 9.43781 117.291 9.57328 117.291 9.73584C117.291 9.80606 117.28 9.86951 117.258 9.9262C117.205 10.0571 117.093 10.1519 116.921 10.2107C116.851 10.2344 116.771 10.2522 116.682 10.2642L111.419 10.7315C109.834 10.8534 108.696 11.1786 108.005 11.7069C107.98 11.7261 107.955 11.7456 107.931 11.7654C107.716 11.94 107.538 12.1381 107.397 12.3596ZM113.634 12.9464C113.146 13.0277 112.801 13.1361 112.598 13.2715C112.394 13.407 112.293 13.6102 112.293 13.8811V13.9015C112.293 14.213 112.421 14.4772 112.679 14.6939C112.91 14.879 113.27 14.9851 113.758 15.0121C113.829 15.0161 113.903 15.0183 113.979 15.0189C113.987 15.019 113.995 15.019 114.002 15.019C114.008 15.0191 114.014 15.0191 114.02 15.0191C114.06 15.0191 114.1 15.0187 114.139 15.0179C114.32 15.0145 114.494 15.0031 114.661 14.9838C115.166 14.9256 115.609 14.7953 115.991 14.5927C116.128 14.5205 116.256 14.4391 116.377 14.3485C116.978 13.8942 117.283 13.374 117.291 12.7879C117.291 12.7798 117.291 12.7717 117.291 12.7635V12.2962L113.634 12.9464ZM124.702 17.4575H130.229V11.9507C130.229 11.2463 130.405 10.6773 130.758 10.2438C131.03 9.92093 131.378 9.71829 131.801 9.63591C131.945 9.6077 132.099 9.5936 132.261 9.5936C132.283 9.5936 132.304 9.59381 132.325 9.59423C132.97 9.60716 133.443 9.81692 133.745 10.2235C134.07 10.6299 134.232 11.165 134.232 11.8288V12.2149H139.597V11.1176C139.597 10.6777 139.561 10.2637 139.49 9.87558C139.458 9.7019 139.419 9.5334 139.373 9.37008C139.356 9.30714 139.338 9.24466 139.318 9.18264C139.316 9.17565 139.313 9.16865 139.311 9.16167C139.193 8.79452 139.033 8.44343 138.831 8.1084C138.778 8.01984 138.721 7.93239 138.662 7.84607C138.337 7.35838 137.863 6.97907 137.24 6.70814C136.617 6.42366 135.872 6.28142 135.005 6.28142H134.761C133.959 6.28142 133.215 6.42801 132.528 6.7212C132.507 6.73026 132.486 6.73945 132.465 6.74878C132.012 6.94897 131.64 7.14637 131.35 7.34097C131.188 7.44924 131.052 7.55665 130.941 7.66319C130.643 7.94767 130.392 8.23892 130.189 8.53695V6.52526H124.702V17.4575ZM141.492 8.30631C141.338 8.49418 141.2 8.68868 141.076 8.88982C141.073 8.89463 141.07 8.89944 141.067 8.90426C140.913 9.15742 140.782 9.42106 140.675 9.6952C140.508 10.1373 140.401 10.6114 140.355 11.1176C140.338 11.3094 140.329 11.5059 140.329 11.7069V12.1336C140.329 12.1608 140.329 12.1879 140.33 12.2149C140.34 13.0763 140.509 13.856 140.837 14.5542C141.104 15.1221 141.477 15.6361 141.955 16.096C143.052 17.1391 144.718 17.6607 146.954 17.6607H147.299C148.098 17.6607 148.83 17.593 149.494 17.4575C149.757 17.3984 150 17.334 150.223 17.2642C150.562 17.1581 150.854 17.0396 151.099 16.9088C151.519 16.6785 151.83 16.4889 152.034 16.3399C152.066 16.3159 152.097 16.292 152.127 16.2683C152.302 16.1314 152.447 15.9995 152.562 15.8725V17.4575H158.069V2.33931H152.542V7.90703C151.857 7.38824 151.077 6.9968 150.202 6.73273C149.296 6.45895 148.287 6.32206 147.177 6.32206H146.791C145.64 6.32206 144.637 6.47107 143.784 6.7691C142.93 7.06713 142.26 7.47353 141.772 7.98831C141.674 8.0921 141.58 8.19811 141.492 8.30631ZM146.649 10.1016C146.175 10.5757 145.938 11.1718 145.938 11.8898V11.9914C145.938 12.6823 146.188 13.2851 146.689 13.7999C147.204 14.3146 147.983 14.572 149.026 14.572H149.108C149.783 14.572 150.363 14.4746 150.849 14.2796C151.152 14.1578 151.418 13.9979 151.648 13.7999C152.097 13.4011 152.377 12.96 152.488 12.4764C152.524 12.3192 152.542 12.1575 152.542 11.9914V11.8898C152.542 11.2541 152.262 10.693 151.703 10.2064C151.678 10.1849 151.653 10.1635 151.627 10.1422C151.524 10.0533 151.414 9.97211 151.297 9.89855C150.734 9.54623 150.004 9.37008 149.108 9.37008H149.006C147.909 9.37008 147.123 9.61392 146.649 10.1016ZM150.111 12.0354C150.137 12.0123 150.157 11.9922 150.172 11.9753C150.163 11.9672 150.153 11.9585 150.142 11.9492L150.12 11.9312L150.098 11.9127C150.063 11.8826 149.841 11.7094 149.108 11.7094H149.006C148.619 11.7094 148.395 11.7537 148.287 11.7872C148.286 11.7874 148.285 11.7877 148.284 11.788C148.281 11.8067 148.277 11.8394 148.277 11.8898V11.9914C148.277 12.022 148.28 12.0399 148.281 12.0481C148.282 12.052 148.283 12.055 148.283 12.0575C148.284 12.06 148.285 12.062 148.286 12.0636C148.286 12.0654 148.296 12.0889 148.334 12.1333C148.388 12.1609 148.577 12.2327 149.026 12.2327H149.108C149.819 12.2327 150.06 12.0755 150.111 12.0354ZM15.0243 6.03757L12.5452 11.2395H17.5643L15.0243 6.03757Z" fill="#202227"/>
</g>
</svg>
